<?xml version="1.0" encoding="utf-8"?>
<!-- Generator: Adobe Illustrator 24.2.0, SVG Export Plug-In . SVG Version: 6.00 Build 0)  -->
<svg version="1.1" id="Layer_1" xmlns="http://www.w3.org/2000/svg" xmlns:xlink="http://www.w3.org/1999/xlink" x="0px" y="0px"
	 viewBox="0 0 1200 1200" style="enable-background:new 0 0 1200 1200;" xml:space="preserve">
<style type="text/css">
	.st0{fill:none;}
	.st1{fill:#5E8E00;}
</style>
<circle class="st0" cx="605.49" cy="601.79" r="594.51"/>
<g id="path11437">
	<path class="st1" d="M232.1,739.46c13.18-8.48,26.41-16.83,39.76-25.01c13.33-8.22,26.76-16.25,40.29-24.15
		c27.05-15.8,54.49-30.95,82.29-45.48c55.64-29.03,112.76-55.58,171.94-78.45c29.61-11.41,59.77-21.81,90.7-30.82
		c15.48-4.47,31.14-8.61,47.09-12.18c15.94-3.63,32.15-6.66,48.74-9.03c8.3-1.17,16.69-2.11,25.21-2.83
		c8.52-0.72,17.15-1.21,25.94-1.33c17.58-0.22,35.78,0.74,54.89,4.56c9.54,1.92,19.33,4.62,29.21,8.49
		c9.87,3.89,19.86,9.02,29.35,15.83c9.48,6.76,18.34,15.29,25.61,25c7.27,9.71,12.89,20.49,16.77,31.28
		c3.93,10.81,6.19,21.59,7.42,31.96c1.23,10.39,1.43,20.4,1.03,30.04c-0.21,4.82-0.57,9.56-1.05,14.21
		c-0.24,2.33-0.52,4.63-0.81,6.93l-0.47,3.42l-0.16,1.04l-0.19,1.18c-0.13,0.79-0.26,1.58-0.42,2.35
		c-2.34,12.55-6.86,24.1-12.32,34.2c-5.48,10.13-11.9,18.91-18.62,26.71c-6.74,7.79-13.81,14.65-21.02,20.87
		c-14.42,12.42-29.36,22.45-44.43,31.31c-15.07,8.84-30.31,16.5-45.64,23.42c-15.33,6.91-30.74,13.09-46.22,18.74
		c-15.48,5.66-31.03,10.77-46.64,15.44c-15.61,4.68-31.27,8.95-46.97,12.87c-31.41,7.82-62.99,14.35-94.76,19.57
		c-31.76,5.25-63.68,9.34-95.79,12.25c-32.11,2.88-64.4,4.5-96.95,4.65c-32.55,0.13-65.35-1.24-98.64-5.23
		c-16.65-2.01-33.43-4.68-50.44-8.45c-17.01-3.81-34.25-8.6-51.87-15.75c-8.81-3.59-17.72-7.76-26.71-12.97
		c-8.97-5.2-18.07-11.44-26.87-19.48c-4.39-4.03-8.7-8.5-12.76-13.55c-4.06-5.03-7.86-10.63-11.14-16.74
		c-3.29-6.1-6.05-12.71-8.05-19.56c-1.02-3.42-1.83-6.9-2.46-10.39c-0.33-1.75-0.58-3.49-0.82-5.23l-0.3-2.61l-0.13-1.27l-0.08-0.99
		l-0.28-3.7l-0.13-1.77l-0.1-2.12c-0.07-1.42-0.12-2.83-0.13-4.22c-0.02-1.39-0.05-2.8-0.02-4.17c0.05-5.52,0.4-10.89,0.98-16.09
		c1.15-10.42,3.14-20.27,5.63-29.63c5.01-18.73,11.9-35.68,19.63-51.67c15.57-31.88,34.49-60.07,55.02-86.5
		c10.28-13.2,21.02-25.9,32.15-38.2c5.56-6.15,11.24-12.19,17-18.13c2.88-2.98,5.79-5.91,8.72-8.84l4.42-4.36l2.63-2.56l1.33-1.28
		l0.66-0.63l0.58-0.51l18.24-16.03c5.85-5.16,11.9-10.37,17.92-15.58c12.19-10.42,24.72-20.86,37.75-30.97
		c3.23-2.54,6.58-4.99,9.86-7.48l4.95-3.72c1.66-1.23,3.35-2.41,5.03-3.62l10.08-7.21l10.23-6.95l5.12-3.47
		c1.71-1.15,3.45-2.23,5.17-3.35l10.36-6.65c1.72-1.12,3.46-2.19,5.2-3.24l5.22-3.18l10.45-6.35
		c27.97-16.53,56.29-31.55,84.74-45.64c7.1-3.63,14.24-6.98,21.36-10.46l10.69-5.18l2.69-1.3l2.83-1.31l5.66-2.61
		c15.13-6.91,30.6-13.28,46.42-18.97c31.63-11.36,64.77-19.98,99.08-24.29c17.14-2.15,34.55-3.23,52.09-3.03
		c17.53,0.2,35.19,1.83,52.72,4.8c17.52,3.12,34.91,7.61,51.81,13.85c8.44,3.12,16.79,6.56,24.93,10.52
		c2.05,0.95,4.07,1.98,6.08,3.02c2,1.03,4.1,2.08,5.91,3.09c3.74,2.08,7.49,4.03,11.2,6.25l5.57,3.25c1.85,1.1,3.69,2.27,5.53,3.4
		c3.7,2.24,7.33,4.69,10.97,7.09c7.23,4.94,14.41,10.08,21.31,15.66c6.91,5.55,13.61,11.39,19.94,17.38
		c6.34,5.98,12.29,12.09,17.79,17.85l4.01,4.21l1.87,1.97l0.91,0.96c-0.47-0.49-1-0.95-1.46-1.34c-1.9-1.61-4.82-3.27-7.64-4.1
		c-2.85-0.88-5.27-0.97-6.74-0.85c-1.48,0.14-2.11,0.4-2.18,0.55c-0.08,0.15,0.37,0.18,1.08,0.07c1.46-0.2,3.91-0.93,6.7-1.91
		c2.8-0.98,5.96-2.22,9.31-3.57c3.37-1.33,6.92-2.82,10.63-4.31c7.44-2.98,15.42-6.17,24.06-9.12c8.68-2.88,17.99-5.74,28.75-7.22
		c5.38-0.76,11.16-1.06,17.25-0.56c6.06,0.49,12.45,1.93,18.31,4.52c5.87,2.57,11.07,6.21,15.25,10.22
		c4.2,4.02,7.45,8.36,10.09,12.67c1.32,2.16,2.5,4.33,3.55,6.48c1.06,2.19,1.95,4.2,2.98,6.67c1.36,4.14,2.76,8.3,3.8,12.19
		c4.46,15.78,7.69,31.29,10.76,46.81c1.48,7.77,2.92,15.51,4.29,23.25l1.97,11.62l0.96,5.81l0.47,2.9l0.23,1.45
		c0.03,0.23,0.09,0.52,0.11,0.69c-0.01,0.06-0.04,0.12-0.08,0.2l-1.66,3.14c-0.63,1.19-2.1,1.65-3.29,1.02
		c-0.53-0.28-0.92-0.74-1.13-1.26l-2.37-5.99l-2.21-5.4l-4.55-10.75c-3.06-7.15-6.22-14.25-9.49-21.28
		c-3.27-7.02-6.62-13.99-10.13-20.82c-1.73-3.43-3.53-6.79-5.32-10.15c-1.85-3.3-3.66-6.64-5.59-9.81c-1.89-3.31-3.82-6.17-5.7-9.09
		c-0.78-0.96-1.8-2.33-2.77-3.46c-0.99-1.15-1.99-2.2-2.99-3.15c-2.01-1.9-4.03-3.35-5.87-4.23c-1.85-0.88-3.46-1.21-4.92-1.23
		c-1.47-0.01-2.87,0.23-4.57,0.76c-1.68,0.5-3.64,1.41-5.79,2.54c-4.31,2.38-9.25,6.02-14.28,10.4c-5.08,4.35-10.32,9.35-16.05,14.6
		c-5.78,5.25-11.95,10.71-19.98,16.15c-4.05,2.72-8.57,5.45-14.36,8.03c-2.92,1.28-6.16,2.53-10.02,3.58
		c-3.84,1.06-8.34,1.91-13.7,2.14c-2.69,0.09-5.59,0-8.66-0.37c-3.06-0.36-6.32-1.05-9.56-2.08c-3.24-1.03-6.48-2.41-9.5-4.09
		c-3.02-1.68-5.79-3.62-8.24-5.67c-1.21-1-2.44-2.14-3.61-3.3l-1.12-1.13l-2.19-2.21l-4.1-4.16c-5.33-5.39-10.32-10.31-15.36-14.9
		c-5.04-4.6-10.14-8.88-15.42-12.97c-5.25-4.11-10.8-7.9-16.45-11.63c-2.88-1.81-5.71-3.67-8.7-5.4c-1.48-0.87-2.93-1.77-4.44-2.63
		l-4.54-2.54c-2.99-1.73-6.16-3.29-9.24-4.94c-1.59-0.87-2.99-1.5-4.46-2.23c-1.45-0.71-2.9-1.43-4.4-2.07
		c-5.88-2.73-11.97-5.08-18.15-7.22c-12.35-4.29-25.22-7.33-38.34-9.41c-13.15-1.94-26.55-2.93-40.09-2.81
		c-13.54,0.13-27.19,1.23-40.84,3.23c-27.31,3.98-54.57,11.56-81.2,21.74c-13.32,5.09-26.5,10.83-39.51,17.09l-4.87,2.37l-2.44,1.18
		l-2.54,1.28l-10.19,5.17c-6.78,3.46-13.64,6.84-20.31,10.41c-26.97,14-53.36,28.56-78.67,44.03
		c-25.29,15.53-49.17,32.03-71.94,50.21c-11.38,9.11-22.59,18.74-33.87,28.68c-5.66,5.05-11.3,10.07-17.02,15.27l-16.55,14.98
		l-0.51,0.46l-0.38,0.38l-0.75,0.76l-1.53,1.52l-3.83,3.87c-2.54,2.59-5.07,5.19-7.57,7.83c-5,5.26-9.92,10.6-14.72,16.02
		c-9.61,10.84-18.83,21.98-27.53,33.39c-8.7,11.4-16.89,23.07-24.38,34.92c-7.51,11.83-14.28,23.88-20.02,35.91
		c-5.71,12.01-10.36,24.06-13.27,35.4c-1.47,5.66-2.47,11.11-2.98,16.13c-0.27,2.52-0.38,4.91-0.39,7.16
		c-0.02,0.58,0.01,1.11,0.02,1.66c0,0.56,0.03,1.08,0.06,1.6l0.03,0.79l0.09,1.13l0.17,2.11l0.03,0.46
		c0.01,0.12,0.02,0.12,0.03,0.18l0.03,0.29c0.04,0.18,0.05,0.36,0.09,0.52c0.06,0.33,0.13,0.64,0.24,0.94
		c0.18,0.6,0.43,1.2,0.84,1.93c0.79,1.44,2.34,3.53,5.04,5.97c2.68,2.43,6.42,5.12,10.9,7.67c4.47,2.57,9.65,5.02,15.24,7.26
		c11.21,4.49,23.97,8.18,37.28,11.13c13.34,2.95,27.28,5.19,41.47,6.9c14.2,1.71,28.68,2.87,43.28,3.61
		c14.6,0.77,29.34,1.12,44.14,1.11c29.6-0.01,59.44-1.44,89.24-3.91c29.81-2.46,59.6-6.04,89.19-10.69
		c29.58-4.69,59-10.29,87.98-17.16c28.97-6.84,57.51-14.96,85.11-24.48c13.79-4.78,27.32-9.96,40.41-15.61
		c13.09-5.65,25.75-11.79,37.59-18.48c11.82-6.68,22.84-13.96,32.15-21.64c4.64-3.83,8.8-7.77,12.32-11.65
		c3.51-3.88,6.33-7.71,8.33-11.2c2-3.5,3.21-6.6,3.81-9.33c0.05-0.17,0.07-0.34,0.11-0.51l0.05-0.25c0.02-0.07,0.04-0.16,0.07-0.39
		l0.37-2.34c0.23-1.55,0.46-3.1,0.64-4.63c0.38-3.06,0.67-6.07,0.86-9.01c0.79-11.75-0.26-22.27-2.81-29.94
		c-1.26-3.88-2.86-7.04-4.79-9.85c-1.97-2.79-4.29-5.29-7.39-7.65c-3.07-2.36-6.9-4.57-11.43-6.5c-4.54-1.92-9.73-3.57-15.38-4.85
		c-11.32-2.59-24.29-3.78-37.77-3.91c-13.5-0.13-27.56,0.68-41.8,2.18c-28.52,2.94-57.73,8.39-86.95,14.89
		c-29.25,6.52-58.57,14.28-87.89,22.59c-58.66,16.69-117.24,35.82-175.98,55.41l-88.32,29.68c-14.77,4.94-29.57,9.89-44.45,14.7
		c-14.87,4.83-29.78,9.64-44.93,13.94c-1.27,0.36-2.58-0.38-2.94-1.64c-0.29-1.03,0.14-2.1,1-2.65L232.1,739.46z"/>
</g>
</svg>
