<svg xmlns="http://www.w3.org/2000/svg" width="512" height="512" viewBox="0 0 1254 1254" fill="none">
  <defs>
  <linearGradient id="g" gradientUnits="userSpaceOnUse" x1="430" y1="250" x2="760" y2="1010">
    <stop offset="0" stop-color="#62DA28"/><stop offset="0.5" stop-color="#2FBE26"/><stop offset="1" stop-color="#0FAB3D"/>
  </linearGradient>
  </defs>
  <rect x="0" y="0" width="1254" height="1254" rx="280" ry="280" fill="#FFFFFF"/>
  <g transform="translate(627,627) scale(1.215) translate(-637.4,-610.1)">
  <path d="M 608.50 210.00 c -103.00 7.80 -198.20 56.30 -264.70 134.70 -23.20 27.40 -49.10 69.30 -55.80 90.30 -3.20 9.90 -3.80 24.70 -1.60 34.50 7.50 32.00 37.10 50.00 66.50 40.40 6.00 -2.00 15.70 -8.70 21.30 -14.80 3.00 -3.20 7.90 -10.50 11.20 -16.70 31.90 -58.70 74.40 -100.30 131.10 -127.90 30.00 -14.70 58.60 -22.90 92.00 -26.50 12.80 -1.40 44.10 -1.40 57.00 -0.00 45.10 4.80 93.10 23.40 132.40 51.30 9.20 6.60 23.40 18.30 34.30 28.30 23.60 21.60 57.30 20.60 78.90 -2.30 17.90 -19.10 19.90 -45.70 5.00 -68.50 -7.50 -11.50 -36.90 -37.70 -60.60 -53.90 -53.90 -37.00 -114.30 -59.80 -178.50 -67.40 -16.40 -1.90 -52.20 -2.70 -68.50 -1.50 z" fill="url(#g)"/>
  <path d="M 614.80 421.00 c -7.10 2.10 -16.40 10.70 -19.90 18.30 -1.80 4.00 -1.90 8.00 -1.90 100.20 0.00 92.70 0.10 96.10 2.00 100.20 2.30 5.30 10.10 13.20 15.50 15.80 3.90 2.00 7.00 2.00 144.50 2.30 l 140.40 0.20 5.30 -2.50 c 6.60 -3.30 14.60 -11.90 16.70 -18.10 0.90 -2.60 1.60 -8.00 1.60 -11.90 0.00 -6.00 -0.50 -8.20 -3.10 -13.30 -3.30 -6.70 -10.00 -13.40 -16.40 -16.30 -3.80 -1.80 -9.50 -1.90 -123.20 -1.90 l -119.30 -0.00 -0.20 -75.30 -0.30 -75.20 -2.80 -5.70 c -3.40 -6.90 -11.20 -14.10 -17.60 -16.30 -4.70 -1.60 -16.70 -1.90 -21.30 -0.50 z" fill="url(#g)"/>
  <path d="M 267.80 487.80 c -13.40 44.30 -18.20 77.20 -18.20 124.20 0.00 34.80 1.50 51.00 7.40 80.00 11.20 55.50 32.70 105.80 64.80 151.90 43.10 62.00 106.90 112.30 178.70 141.10 65.30 26.20 139.30 33.10 207.50 19.40 60.60 -12.10 119.00 -39.20 166.90 -77.40 11.10 -8.80 34.10 -29.90 41.70 -38.20 5.90 -6.50 11.70 -17.10 13.90 -25.40 1.90 -7.50 1.90 -21.30 0.00 -28.90 -5.70 -21.80 -24.30 -37.00 -46.50 -38.30 -18.80 -1.00 -27.30 3.00 -46.00 21.60 -24.00 23.80 -45.90 39.60 -74.50 53.70 -57.20 28.20 -118.30 36.10 -180.50 23.40 -96.50 -19.60 -180.50 -93.90 -212.80 -188.40 -20.30 -59.30 -21.50 -116.70 -3.80 -179.20 1.40 -5.10 2.60 -9.50 2.60 -9.90 0.00 -0.40 -1.20 0.40 -2.70 1.80 -12.60 11.80 -35.00 16.20 -51.60 10.30 -10.10 -3.50 -17.10 -8.10 -24.30 -15.90 -10.10 -10.80 -16.40 -25.40 -16.40 -37.70 0.00 -2.20 -0.30 -3.90 -0.70 -3.90 -0.50 -0.00 -2.90 7.10 -5.50 15.80 z" fill="url(#g)"/>
  </g>
</svg>
